<?xml version="1.0" encoding="UTF-8"?>
<svg version="1.1" xmlns="http://www.w3.org/2000/svg" width="268" height="170">
<path d="M0 0 C88.44 0 176.88 0 268 0 C268 56.1 268 112.2 268 170 C179.56 170 91.12 170 0 170 C0 113.9 0 57.8 0 0 Z " fill="#FDFEFD" transform="translate(0,0)"/>
<path d="M0 0 C0.65178223 0.20689453 1.30356445 0.41378906 1.97509766 0.62695312 C16.16477965 5.20663877 30.01181471 11.44633754 40 23 C40.69805492 25.91314258 40.34475173 27.94648469 40 31 C39.01 31.66 38.02 32.32 37 33 C36.01 32.34 35.02 31.68 34 31 C34 30.34 34 29.68 34 29 C20.91826353 26.50824067 8.33043403 28.47831673 -4.5625 30.875 C-6.0746626 31.14828436 -7.58703254 31.42042396 -9.09960938 31.69140625 C-10.2107309 31.89070236 -10.2107309 31.89070236 -11.34429932 32.09402466 C-12.44424225 32.29111526 -12.44424225 32.29111526 -13.56640625 32.4921875 C-14.65668121 32.68770706 -14.65668121 32.68770706 -15.76898193 32.88717651 C-17.18372461 33.14056655 -18.59857742 33.3933426 -20.0135498 33.64544678 C-21.85034553 33.9732888 -23.68643638 34.3050734 -25.52246094 34.63720703 C-33.112311 35.92348688 -40.43529722 36.24544113 -48.125 36.125 C-49.23359375 36.11597656 -50.3421875 36.10695312 -51.484375 36.09765625 C-53.51322901 36.0803789 -55.54205574 36.05895357 -57.57080078 36.03173828 C-59.38041033 36.00809514 -61.190236 36 -63 36 C-44.07378191 42.31814136 -24.42613197 41.07374673 -5.06347656 37.38916016 C8.04209675 34.91752222 20.98562235 33.40982685 34 37 C22.71574715 50.70230703 -1.57804943 55.34796843 -18.25390625 57.4921875 C-21.92454275 57.87155549 -21.92454275 57.87155549 -25 59 C-46.84903369 60.86732871 -73.68622194 59.26609708 -91.16015625 44.69921875 C-94.47647725 41.63637451 -97.47354786 38.30181966 -99 34 C-98.49807559 30.89192962 -97.39109904 28.78941944 -95.5625 26.25 C-95.13066406 25.63640625 -94.69882813 25.0228125 -94.25390625 24.390625 C-93.84011719 23.93171875 -93.42632812 23.4728125 -93 23 C-92.34 23 -91.68 23 -91 23 C-90.73316406 22.40058594 -90.46632813 21.80117188 -90.19140625 21.18359375 C-86.66035485 14.71192904 -79.31798479 11.24704793 -73 8 C-72.36320312 7.65066406 -71.72640625 7.30132812 -71.0703125 6.94140625 C-65.30288877 3.86624463 -59.25936285 1.83920819 -53 0 C-51.98550781 -0.30292969 -50.97101563 -0.60585937 -49.92578125 -0.91796875 C-34.39976107 -4.90716332 -15.32581656 -4.91811514 0 0 Z " fill="#62AA34" transform="translate(155,15)"/>
<path d="M0 0 C4.31365442 2.78961536 5.18661904 5.29291723 6.45703125 10.12890625 C8.47944743 20.82297744 6.87875756 30.73244604 1.12890625 40.0234375 C-2.18823435 44.70129551 -5.62401324 49.2675407 -10 53 C-10.66 53 -11.32 53 -12 53 C-11.9175 54.258125 -11.835 55.51625 -11.75 56.8125 C-11.78359374 67.5121049 -17.36998006 76.88260954 -24.375 84.625 C-25.24125 85.40875 -26.1075 86.1925 -27 87 C-27.99966797 87.91845703 -27.99966797 87.91845703 -29.01953125 88.85546875 C-34.71856287 94 -34.71856287 94 -37 94 C-37 94.66 -37 95.32 -37 96 C-40 98 -40 98 -43 98 C-43 98.66 -43 99.32 -43 100 C-71.83109955 112.33687144 -100.66459195 115.57739657 -130.4296875 103.92578125 C-136.32323944 101.51323743 -141.72277572 98.56352777 -147 95 C-148.22783203 94.18595703 -148.22783203 94.18595703 -149.48046875 93.35546875 C-154.71176561 89.61382091 -158.13266163 85.44959338 -161.58984375 80.0390625 C-162.84240551 77.87826832 -162.84240551 77.87826832 -165 77 C-166.13684164 74.44652409 -167.15634142 71.92880512 -168.125 69.3125 C-168.40214844 68.60416016 -168.67929688 67.89582031 -168.96484375 67.16601562 C-170.54174824 62.95964231 -171.33055512 59.56309783 -171 55 C-169.02 55.66 -167.04 56.32 -165 57 C-165 57.66 -165 58.32 -165 59 C-164.13375 59.12375 -163.2675 59.2475 -162.375 59.375 C-159.10486147 59.98058121 -156.12743101 60.88306035 -153 62 C-153 62.66 -153 63.32 -153 64 C-151.74896484 64.18175781 -151.74896484 64.18175781 -150.47265625 64.3671875 C-140.16408986 65.90225466 -140.16408986 65.90225466 -135.625 67 C-100.0379867 75.07921383 -59.54828505 69.27414252 -27 53 C-27.24093353 60.90261981 -27.65331299 67.29601877 -32 74 C-32.50402344 74.81984375 -33.00804687 75.6396875 -33.52734375 76.484375 C-36.45161357 81.08884874 -36.45161357 81.08884874 -38 83 C-38.66 83 -39.32 83 -40 83 C-40.20625 83.556875 -40.4125 84.11375 -40.625 84.6875 C-43.45479808 89.44670586 -47.79971748 92.31755566 -53 94 C-53 94.66 -53 95.32 -53 96 C-66.6332574 102.33485194 -66.6332574 102.33485194 -73 105 C-66.79199337 103.06274971 -60.88969888 100.75377142 -55 98 C-54.030625 97.566875 -53.06125 97.13375 -52.0625 96.6875 C-37.59336614 88.71471195 -28.14885012 78.47679019 -22.74609375 62.76171875 C-21.60673399 58.54429807 -21.18893105 54.35486068 -21 50 C-20.01 50 -19.02 50 -18 50 C-18 49.34 -18 48.68 -18 48 C-16.34467377 46.98133771 -14.67739862 45.98189187 -13 45 C-12.67 44.34 -12.34 43.68 -12 43 C-11.01 43 -10.02 43 -9 43 C-8.731875 42.401875 -8.46375 41.80375 -8.1875 41.1875 C-7 39 -7 39 -5.59375 37.74609375 C1.39900147 30.08491751 1.60040017 18.46364586 1.2734375 8.71484375 C1.0518374 5.7042481 0.69672886 2.92968775 0 0 Z " fill="#57AFE5" transform="translate(220,19)"/>
<path d="M0 0 C4.31365442 2.78961536 5.18661904 5.29291723 6.45703125 10.12890625 C8.47944743 20.82297744 6.87875756 30.73244604 1.12890625 40.0234375 C-2.18823435 44.70129551 -5.62401324 49.2675407 -10 53 C-10.66 53 -11.32 53 -12 53 C-11.9175 54.258125 -11.835 55.51625 -11.75 56.8125 C-11.78359374 67.5121049 -17.36998006 76.88260954 -24.375 84.625 C-25.24125 85.40875 -26.1075 86.1925 -27 87 C-27.99966797 87.91845703 -27.99966797 87.91845703 -29.01953125 88.85546875 C-34.71856287 94 -34.71856287 94 -37 94 C-37 94.66 -37 95.32 -37 96 C-40 98 -40 98 -43 98 C-43 98.66 -43 99.32 -43 100 C-71.73907013 112.29749191 -100.32634913 115.50073451 -130 104 C-130 103.67 -130 103.34 -130 103 C-127.36 103 -124.72 103 -122 103 C-122 103.66 -122 104.32 -122 105 C-120.14375 105.185625 -120.14375 105.185625 -118.25 105.375 C-115.1237803 105.75746305 -112.71120763 106.30549523 -110 108 C-109.505 106.515 -109.505 106.515 -109 105 C-108.505 105.99 -108.505 105.99 -108 107 C-102.22653232 108.92448923 -98.00322997 108.911305 -92 108 C-91.2479126 107.89486084 -90.4958252 107.78972168 -89.72094727 107.68139648 C-87.33221959 107.34498753 -84.9474907 106.98688721 -82.5625 106.625 C-81.76779297 106.5115625 -80.97308594 106.398125 -80.15429688 106.28125 C-71.18577585 104.90933629 -63.18541289 101.82714916 -55 98 C-54.030625 97.566875 -53.06125 97.13375 -52.0625 96.6875 C-37.59336614 88.71471195 -28.14885012 78.47679019 -22.74609375 62.76171875 C-21.60673399 58.54429807 -21.18893105 54.35486068 -21 50 C-20.01 50 -19.02 50 -18 50 C-18 49.34 -18 48.68 -18 48 C-16.34467377 46.98133771 -14.67739862 45.98189187 -13 45 C-12.505 44.01 -12.505 44.01 -12 43 C-11.01 43 -10.02 43 -9 43 C-8.731875 42.401875 -8.46375 41.80375 -8.1875 41.1875 C-7 39 -7 39 -5.59375 37.74609375 C1.39900147 30.08491751 1.60040017 18.46364586 1.2734375 8.71484375 C1.0518374 5.7042481 0.69672886 2.92968775 0 0 Z " fill="#60ACD8" transform="translate(220,19)"/>
<path d="M0 0 C0.72896484 -0.020625 1.45792969 -0.04125 2.20898438 -0.0625 C7.59708545 -0.10200945 7.59708545 -0.10200945 10.06640625 1.765625 C10.55947266 2.50039062 10.55947266 2.50039062 11.0625 3.25 C11.3925 2.59 11.7225 1.93 12.0625 1.25 C18.0025 1.25 23.9425 1.25 30.0625 1.25 C30.5575 3.23 30.5575 3.23 31.0625 5.25 C30.0625 6.25 30.0625 6.25 27.99609375 6.34765625 C27.17238281 6.33605469 26.34867188 6.32445312 25.5 6.3125 C24.67371094 6.30347656 23.84742188 6.29445312 22.99609375 6.28515625 C22.35800781 6.27355469 21.71992187 6.26195312 21.0625 6.25 C21.0625 6.91 21.0625 7.57 21.0625 8.25 C22.733125 8.2190625 22.733125 8.2190625 24.4375 8.1875 C28.0625 8.25 28.0625 8.25 30.0625 9.25 C30.0625 10.24 30.0625 11.23 30.0625 12.25 C29.4025 12.58 28.7425 12.91 28.0625 13.25 C28.578125 13.6625 29.09375 14.075 29.625 14.5 C30.099375 15.0775 30.57375 15.655 31.0625 16.25 C30.65234375 18.359375 30.65234375 18.359375 30.0625 20.25 C23.72916667 20.25 17.39583333 20.25 11.0625 20.25 C10.258125 20.45625 9.45375 20.6625 8.625 20.875 C6.0625 21.25 6.0625 21.25 3.0625 19.25 C2.375 16.625 2.375 16.625 2.0625 14.25 C1.0725 14.25 0.0825 14.25 -0.9375 14.25 C-0.9375 15.57 -0.9375 16.89 -0.9375 18.25 C-4.8975 18.745 -4.8975 18.745 -8.9375 19.25 C-9.2675 18.26 -9.5975 17.27 -9.9375 16.25 C-10.948125 16.91 -11.95875 17.57 -13 18.25 C-16.81679874 20.40030915 -19.51684749 20.88152179 -23.9375 20.25 C-27.34552793 18.89508423 -30.15532216 17.26031304 -32.4375 14.3125 C-33.12222339 11.48801602 -32.94165943 9.99470244 -31.9375 7.25 C-29.83943047 4.27209486 -28.16886661 2.6104508 -24.62890625 1.57421875 C-18.39615785 0.63503748 -15.02192179 1.60248002 -9.9375 5.25 C-9.9375 3.93 -9.9375 2.61 -9.9375 1.25 C-6.79239907 -0.32255046 -3.44984555 0.02427332 0 0 Z " fill="#EDFCE0" transform="translate(55.9375,143.75)"/>
<path d="M0 0 C2.4375 2.625 2.4375 2.625 4 5 C3.34 5.33 2.68 5.66 2 6 C1.34786708 8.02463255 1.34786708 8.02463255 1 10 C0.46375 9.690625 -0.0725 9.38125 -0.625 9.0625 C-14.04761891 3.05764417 -33.03940748 7.97128992 -46.88867188 10.53466797 C-54.05177788 11.83482077 -60.971917 12.38526367 -68.25 12.375 C-69.33249023 12.37483887 -70.41498047 12.37467773 -71.53027344 12.37451172 C-82.38186004 12.22114952 -91.95955493 10.18980979 -102 6 C-98.62533027 4.87511009 -97.39113631 5.24824376 -94 6 C-71.66660285 7.82927773 -49.66304278 3.58508662 -27.875 -0.8125 C-18.97966517 -2.54242147 -8.49047449 -3.87608618 0 0 Z " fill="#F2FBE9" transform="translate(189,44)"/>
<path d="M0 0 C1.99601306 0.3564309 3.994845 0.69922675 6 1 C6.33 0.67 6.66 0.34 7 0 C8.65 0 10.3 0 12 0 C12 4.29 12 8.58 12 13 C15.3 13 18.6 13 22 13 C22.495 14.485 22.495 14.485 23 16 C20.63071911 17.18464045 19.03014042 17.18563417 16.38671875 17.28125 C15.46826172 17.31863281 14.54980469 17.35601562 13.60351562 17.39453125 C12.64123047 17.42933594 11.67894531 17.46414062 10.6875 17.5 C8.79543585 17.56926879 6.90349721 17.64207414 5.01171875 17.71875 C4.17084717 17.74904297 3.32997559 17.77933594 2.46362305 17.81054688 C-0.04726528 17.95026835 -0.04726528 17.95026835 -2.65258789 18.55517578 C-7.12649002 19.40296046 -11.13179614 17.12516572 -15 15 C-17.1875 12.5625 -17.1875 12.5625 -18 10 C-17.72323446 7.09396188 -16.92416454 4.77249363 -16 2 C-10.34483901 -1.29884391 -6.31586143 -1.16917943 0 0 Z " fill="#E1F9FC" transform="translate(158,146)"/>
<path d="M0 0 C0 0.66 0 1.32 0 2 C-0.99 2 -1.98 2 -3 2 C-2.94199219 2.57105469 -2.88398438 3.14210938 -2.82421875 3.73046875 C-2.13538341 16.10982383 -8.04131525 27.25283145 -16.06640625 36.33984375 C-26.47722183 47.22140925 -42.66575937 57.24484241 -58.0625 58.1875 C-59.0215625 58.0946875 -59.0215625 58.0946875 -60 58 C-55.63577609 55.67836682 -51.00205808 53.99336669 -46.40039062 52.2109375 C-43.35175004 51.01206792 -40.73793008 49.82528672 -38 48 C-37.01 48 -36.02 48 -35 48 C-35 47.34 -35 46.68 -35 46 C-30.61538462 43 -30.61538462 43 -28 43 C-27.67 42.01 -27.34 41.02 -27 40 C-25.58203125 38.7109375 -25.58203125 38.7109375 -23.8125 37.375 C-13.63828303 28.95567877 -10.61228597 17.6137667 -9 5 C-8.01 5 -7.02 5 -6 5 C-6.33 6.98 -6.66 8.96 -7 11 C-6.34 11 -5.68 11 -5 11 C-5.226875 9.741875 -5.45375 8.48375 -5.6875 7.1875 C-6.17793988 3.2847038 -6.17793988 3.2847038 -4.75 1 C-3 0 -3 0 0 0 Z " fill="#E5FAFD" transform="translate(202,67)"/>
<path d="M0 0 C2.06183633 -0.08150744 4.12461349 -0.1394194 6.1875 -0.1875 C7.33605469 -0.22230469 8.48460937 -0.25710937 9.66796875 -0.29296875 C13.30186108 0.02654113 15.10989585 0.82448204 18 3 C18.9375 4.875 18.9375 4.875 19 7 C18.4740625 8.2375 18.4740625 8.2375 17.9375 9.5 C16.69782553 11.96964387 16.69782553 11.96964387 17.875 14.3125 C18.431875 15.1478125 18.431875 15.1478125 19 16 C16.75 16.6875 16.75 16.6875 14 17 C11.6875 15.6875 11.6875 15.6875 10 14 C10 13.34 10 12.68 10 12 C9.01 12 8.02 12 7 12 C7 13.32 7 14.64 7 16 C5.0085944 16.38133299 3.00720923 16.71325582 1 17 C0 16 0 16 -0.09765625 12.40234375 C-0.0909822 10.91403133 -0.07902183 9.42573568 -0.0625 7.9375 C-0.05798828 7.17888672 -0.05347656 6.42027344 -0.04882812 5.63867188 C-0.0370068 3.75908129 -0.01907078 1.87953101 0 0 Z " fill="#64A741" transform="translate(48,146)"/>
<path d="M0 0 C0.77601562 0.07863281 1.55203125 0.15726563 2.3515625 0.23828125 C4.375 0.6875 4.375 0.6875 6.375 2.6875 C6.375 3.6775 6.375 4.6675 6.375 5.6875 C5.60414062 5.59210938 4.83328125 5.49671875 4.0390625 5.3984375 C3.03617188 5.28757813 2.03328125 5.17671875 1 5.0625 C0.00226562 4.94648438 -0.99546875 4.83046875 -2.0234375 4.7109375 C-2.88195313 4.70320312 -3.74046875 4.69546875 -4.625 4.6875 C-6.91228734 6.52633881 -6.91228734 6.52633881 -6.75 9.3125 C-6.70875 10.09625 -6.6675 10.88 -6.625 11.6875 C-4.315 12.0175 -2.005 12.3475 0.375 12.6875 C-0.945 12.0275 -2.265 11.3675 -3.625 10.6875 C-3.295 9.6975 -2.965 8.7075 -2.625 7.6875 C-1.14593108 7.66060784 0.33327483 7.64115379 1.8125 7.625 C2.63621094 7.61339844 3.45992187 7.60179687 4.30859375 7.58984375 C6.375 7.6875 6.375 7.6875 7.375 8.6875 C7.41592937 11.02047433 7.41741723 13.35455225 7.375 15.6875 C2.82353747 18.35177075 -0.3550506 19.33468677 -5.625 18.6875 C-9.03488891 17.34149122 -11.84484321 15.69520252 -14.125 12.75 C-14.80972339 9.92551602 -14.62915943 8.43220244 -13.625 5.6875 C-9.37423173 0.63253232 -6.45706006 -0.72344987 0 0 Z " fill="#6BA54A" transform="translate(37.625,145.3125)"/>
<path d="M0 0 C4.7109375 -0.171875 4.7109375 -0.171875 7.3125 1.375 C7.869375 1.91125 8.42625 2.4475 9 3 C9 3.66 9 4.32 9 5 C9.928125 5.4640625 9.928125 5.4640625 10.875 5.9375 C12.25 6.625 13.625 7.3125 15 8 C15 5.69 15 3.38 15 1 C16.65614657 0.61781233 18.32457024 0.28604898 20 0 C21 1 21 1 21.09765625 4.37890625 C21.09098369 5.77347077 21.07902532 7.16801743 21.0625 8.5625 C21.05798828 9.27341797 21.05347656 9.98433594 21.04882812 10.71679688 C21.03700864 12.47790013 21.01907263 14.23896036 21 16 C19.35 16.33 17.7 16.66 16 17 C16 16.34 16 15.68 16 15 C14.68 14.67 13.36 14.34 12 14 C12 13.34 12 12.68 12 12 C11.38125 11.690625 10.7625 11.38125 10.125 11.0625 C8.75 10.375 7.375 9.6875 6 9 C6 11.31 6 13.62 6 16 C4.34385343 16.38218767 2.67542976 16.71395102 1 17 C0 16 0 16 -0.09765625 12.40234375 C-0.0909822 10.91403133 -0.07902183 9.42573568 -0.0625 7.9375 C-0.05798828 7.17888672 -0.05347656 6.42027344 -0.04882812 5.63867188 C-0.0370068 3.75908129 -0.01907078 1.87953101 0 0 Z " fill="#6DA349" transform="translate(111,146)"/>
<path d="M0 0 C1.48831242 0.00667405 2.97660807 0.01863442 4.46484375 0.03515625 C5.22345703 0.03966797 5.98207031 0.04417969 6.76367188 0.04882812 C8.64326246 0.06064945 10.52281274 0.07858547 12.40234375 0.09765625 C12.73234375 1.08765625 13.06234375 2.07765625 13.40234375 3.09765625 C10.65155491 4.01458586 9.04285462 4.20651708 6.21484375 4.16015625 C4.32765625 4.12921875 4.32765625 4.12921875 2.40234375 4.09765625 C2.40234375 4.75765625 2.40234375 5.41765625 2.40234375 6.09765625 C5.04234375 6.09765625 7.68234375 6.09765625 10.40234375 6.09765625 C10.73234375 7.41765625 11.06234375 8.73765625 11.40234375 10.09765625 C10.41234375 10.59265625 10.41234375 10.59265625 9.40234375 11.09765625 C10.06234375 11.55140625 10.72234375 12.00515625 11.40234375 12.47265625 C12.06234375 13.00890625 12.72234375 13.54515625 13.40234375 14.09765625 C13.40234375 14.75765625 13.40234375 15.41765625 13.40234375 16.09765625 C10.42994584 17.5838552 7.70614797 17.22942634 4.40234375 17.22265625 C2.51515625 17.22652344 2.51515625 17.22652344 0.58984375 17.23046875 C-2.59765625 17.09765625 -2.59765625 17.09765625 -4.59765625 16.09765625 C-4.6245072 13.61841824 -4.64442172 11.13946785 -4.66015625 8.66015625 C-4.67272461 7.59958008 -4.67272461 7.59958008 -4.68554688 6.51757812 C-4.69419213 4.71072066 -4.64985636 2.90378022 -4.59765625 1.09765625 C-3.59765625 0.09765625 -3.59765625 0.09765625 0 0 Z " fill="#6AA846" transform="translate(94.59765625,145.90234375)"/>
<path d="M0 0 C5.61 0 11.22 0 17 0 C16.67 1.32 16.34 2.64 16 4 C13.03 4 10.06 4 7 4 C7 4.66 7 5.32 7 6 C8.670625 5.9690625 8.670625 5.9690625 10.375 5.9375 C14 6 14 6 16 7 C16 7.99 16 8.98 16 10 C15.01 10.495 15.01 10.495 14 11 C14.99 11.99 15.98 12.98 17 14 C16.67 14.99 16.34 15.98 16 17 C13.52076199 17.02685095 11.0418116 17.04676547 8.5625 17.0625 C7.85544922 17.07087891 7.14839844 17.07925781 6.41992188 17.08789062 C4.61306441 17.09653588 2.80612397 17.05220011 1 17 C0 16 0 16 -0.09765625 12.40234375 C-0.09191272 10.91402745 -0.07889891 9.42573704 -0.0625 7.9375 C-0.041875 5.318125 -0.02125 2.69875 0 0 Z " fill="#74A955" transform="translate(70,146)"/>
<path d="M0 0 C1.98 0 3.96 0 6 0 C6.33 1.65 6.66 3.3 7 5 C7.61875 4.505 8.2375 4.01 8.875 3.5 C11 2 11 2 13 2 C13 1.34 13 0.68 13 0 C14.98 0 16.96 0 19 0 C18.75 1.875 18.75 1.875 18 4 C15.953125 5.1328125 15.953125 5.1328125 14 6 C14.66708984 6.81404297 14.66708984 6.81404297 15.34765625 7.64453125 C16.19650391 8.71767578 16.19650391 8.71767578 17.0625 9.8125 C17.63097656 10.52019531 18.19945312 11.22789062 18.78515625 11.95703125 C19.38650391 12.96830078 19.38650391 12.96830078 20 14 C19.67 14.99 19.34 15.98 19 17 C14.13028826 16.58259614 12.27815116 14.45534852 9 11 C8.34 11 7.68 11 7 11 C7 12.65 7 14.3 7 16 C5.0085944 16.38133299 3.00720923 16.71325582 1 17 C0 16 0 16 -0.09765625 12.40234375 C-0.0909822 10.91403133 -0.07902183 9.42573568 -0.0625 7.9375 C-0.05798828 7.17888672 -0.05347656 6.42027344 -0.04882812 5.63867188 C-0.0370068 3.75908129 -0.01907078 1.87953101 0 0 Z " fill="#65AED9" transform="translate(217,146)"/>
<path d="M0 0 C4.31365442 2.78961536 5.18661904 5.29291723 6.45703125 10.12890625 C8.49336989 20.89659616 6.88830262 30.92267205 0.953125 40.19921875 C-0.96763972 42.8590011 -2.93370013 45.4522322 -5 48 C-5.33 46.68 -5.66 45.36 -6 44 C-4.515 43.505 -4.515 43.505 -3 43 C-3.33 42.34 -3.66 41.68 -4 41 C-4.99 41 -5.98 41 -7 41 C-7 41.66 -7 42.32 -7 43 C-7.66 43 -8.32 43 -9 43 C-8.06241963 40.90847455 -7.31933385 39.28473935 -5.59375 37.74609375 C1.39900147 30.08491751 1.60040017 18.46364586 1.2734375 8.71484375 C1.0518374 5.7042481 0.69672886 2.92968775 0 0 Z " fill="#63ADDA" transform="translate(220,19)"/>
<path d="M0 0 C2.375 1 2.375 1 4 2 C3.67 3.32 3.34 4.64 3 6 C-1.455 5.01 -1.455 5.01 -6 4 C-5.67 4.66 -5.34 5.32 -5 6 C-3.88625 6.309375 -2.7725 6.61875 -1.625 6.9375 C3.47913447 8.43353941 3.47913447 8.43353941 5 11 C5.0625 13.5 5.0625 13.5 4 16 C0.53138003 18.4775857 -1.41426146 19.02978332 -5.6875 18.8125 C-9 18 -9 18 -12 16 C-11.67 14.68 -11.34 13.36 -11 12 C-6.545 12.99 -6.545 12.99 -2 14 C-3.62138383 10.75723234 -6.75110594 10.31095725 -10 9 C-10.66 8.67 -11.32 8.34 -12 8 C-12 6.35 -12 4.7 -12 3 C-7.78929481 0.59388275 -4.86324671 -0.52861377 0 0 Z " fill="#64ACD6" transform="translate(251,145)"/>
<path d="M0 0 C0 1.32 0 2.64 0 4 C-1.66611905 4.042721 -3.33382885 4.04063832 -5 4 C-5.33 3.67 -5.66 3.34 -6 3 C-8.45809998 2.7499227 -8.45809998 2.7499227 -11 3 C-13.28728734 4.83883881 -13.28728734 4.83883881 -13.125 7.625 C-13.08375 8.40875 -13.0425 9.1925 -13 10 C-8.6835078 10.76173392 -5.25566547 11.16063604 -1 10 C-0.67 11.32 -0.34 12.64 0 14 C-4.20883419 16.40504811 -7.14193553 17.69400921 -12 17 C-15.37789516 15.61909946 -18.22938966 13.99537169 -20.5 11.0625 C-21.38315441 7.41948805 -20.1570702 4.4712106 -19 1 C-12.5298771 -2.77423836 -6.98677823 -2.32892608 0 0 Z " fill="#69ACD5" transform="translate(161,147)"/>
<path d="M0 0 C0.99 0.66 1.98 1.32 3 2 C2.67 2.99 2.34 3.98 2 5 C-2.08718695 5.24042276 -5.17679443 4.42258812 -9 3 C-9 3.66 -9 4.32 -9 5 C-9.66 5 -10.32 5 -11 5 C-11.16687448 7.41645782 -11.16687448 7.41645782 -11 10 C-10.34 10.66 -9.68 11.32 -9 12 C-6.32186601 12.02207488 -6.32186601 12.02207488 -3.375 11.625 C-2.37210938 11.51414063 -1.36921875 11.40328125 -0.3359375 11.2890625 C0.43492187 11.19367188 1.20578125 11.09828125 2 11 C2.33 12.32 2.66 13.64 3 15 C-1.20883419 17.40504811 -4.14193553 18.69400921 -9 18 C-12.89868391 16.33263833 -15.6048604 14.59270941 -18 11 C-18.46057736 7.392144 -18.52356882 5.69809177 -16.3125 2.75 C-10.96058619 -1.30009694 -6.42404539 -1.4917259 0 0 Z " fill="#65AAD4" transform="translate(211,146)"/>
<path d="M0 0 C2.31 0.33 4.62 0.66 7 1 C7 1.33 7 1.66 7 2 C5.35 2 3.7 2 2 2 C2.495 9.92 2.495 9.92 3 18 C4.65 18 6.3 18 8 18 C7.67 18.66 7.34 19.32 7 20 C-0.20283561 22.4009452 -9.4586497 21 -17 21 C-17 20.34 -17 19.68 -17 19 C-11.72 18.67 -6.44 18.34 -1 18 C-1 17.34 -1 16.68 -1 16 C-4.63 15.34 -8.26 14.68 -12 14 C-12 13.67 -12 13.34 -12 13 C-7.545 12.505 -7.545 12.505 -3 12 C-3.33 11.01 -3.66 10.02 -4 9 C-6.64 8.67 -9.28 8.34 -12 8 C-12 7.34 -12 6.68 -12 6 C-6.555 5.505 -6.555 5.505 -1 5 C-1.33 4.01 -1.66 3.02 -2 2 C-1.34 2 -0.68 2 0 2 C0 1.34 0 0.68 0 0 Z " fill="#EAFBDD" transform="translate(109,144)"/>
<path d="M0 0 C1.98 0.66 3.96 1.32 6 2 C6 2.66 6 3.32 6 4 C6.86625 4.12375 7.7325 4.2475 8.625 4.375 C11.89513853 4.98058121 14.87256899 5.88306035 18 7 C18 7.66 18 8.32 18 9 C19.25103516 9.18175781 19.25103516 9.18175781 20.52734375 9.3671875 C26.42401208 10.24527099 32.24975342 11.19839702 38.0546875 12.55859375 C40.68517418 13.15547125 43.33479392 13.58996829 46 14 C46 14.33 46 14.66 46 15 C39.28115045 15.12920865 32.68815484 14.62422779 26 14 C26 13.34 26 12.68 26 12 C25.40832031 11.96261719 24.81664063 11.92523438 24.20703125 11.88671875 C19.25698408 11.47488775 16.23582879 10.70622395 12 8 C9.29046449 7.74803871 9.29046449 7.74803871 7 8 C6.34 9.32 5.68 10.64 5 12 C6.32 12 7.64 12 9 12 C9.33 12.66 9.66 13.32 10 14 C12.02463255 14.65213292 12.02463255 14.65213292 14 15 C14 15.33 14 15.66 14 16 C10.37 15.67 6.74 15.34 3 15 C-0.42857143 5.57142857 -0.42857143 5.57142857 0 0 Z " fill="#61ABD8" transform="translate(49,74)"/>
<path d="M0 0 C1.65 0 3.3 0 5 0 C5 4.29 5 8.58 5 13 C8.3 13 11.6 13 15 13 C15.33 13.99 15.66 14.98 16 16 C13.14804778 17.42597611 10.67538825 17.1320252 7.5 17.125 C5.75203125 17.12886719 5.75203125 17.12886719 3.96875 17.1328125 C1 17 1 17 -1 16 C-1.02685095 13.52076199 -1.04676547 11.0418116 -1.0625 8.5625 C-1.07506836 7.50192383 -1.07506836 7.50192383 -1.08789062 6.41992188 C-1.09653588 4.61306441 -1.05220011 2.80612397 -1 1 C-0.67 0.67 -0.34 0.34 0 0 Z " fill="#66ABD4" transform="translate(165,146)"/>
<path d="M0 0 C1.02770508 -0.01160156 1.02770508 -0.01160156 2.07617188 -0.0234375 C7.1841133 -0.0033867 7.1841133 -0.0033867 9.4375 2.25 C1.5175 2.745 1.5175 2.745 -6.5625 3.25 C-6.8925 8.2 -7.2225 13.15 -7.5625 18.25 C-6.9025 18.58 -6.2425 18.91 -5.5625 19.25 C-7.5425 19.25 -9.5225 19.25 -11.5625 19.25 C-11.5625 17.6 -11.5625 15.95 -11.5625 14.25 C-14.5325 14.25 -17.5025 14.25 -20.5625 14.25 C-20.5625 13.92 -20.5625 13.59 -20.5625 13.25 C-16.1075 12.755 -16.1075 12.755 -11.5625 12.25 C-11.5625 11.26 -11.5625 10.27 -11.5625 9.25 C-14.5325 8.92 -17.5025 8.59 -20.5625 8.25 C-20.5625 7.59 -20.5625 6.93 -20.5625 6.25 C-16.1075 5.755 -16.1075 5.755 -11.5625 5.25 C-11.2325 4.26 -10.9025 3.27 -10.5625 2.25 C-6.92564463 -0.17457025 -4.20017221 -0.04768407 0 0 Z " fill="#EEFDE4" transform="translate(97.5625,143.75)"/>
<path d="M0 0 C3.3 0 6.6 0 10 0 C11.35439668 2.70879335 11.06501451 5.00933268 11 8 C11.63808594 8.18175781 12.27617187 8.36351562 12.93359375 8.55078125 C13.75988281 8.80214844 14.58617187 9.05351562 15.4375 9.3125 C16.26121094 9.55613281 17.08492187 9.79976562 17.93359375 10.05078125 C18.61550781 10.36402344 19.29742187 10.67726562 20 11 C20.33 11.99 20.66 12.98 21 14 C18.03 13.67 15.06 13.34 12 13 C12 14.32 12 15.64 12 17 C11.34 17 10.68 17 10 17 C10 17.66 10 18.32 10 19 C8.02 19.33 6.04 19.66 4 20 C3.67 19.01 3.34 18.02 3 17 C4.65 17 6.3 17 8 17 C6.79367548 13.56661484 5.61522816 11.49635415 3 9 C3 8.34 3 7.68 3 7 C3.639375 6.525625 4.27875 6.05125 4.9375 5.5625 C7.28372963 4.0908635 7.28372963 4.0908635 8 1 C6.02 1 4.04 1 2 1 C2 1.66 2 2.32 2 3 C1.01 3.33 0.02 3.66 -1 4 C-0.67 2.68 -0.34 1.36 0 0 Z " fill="#EAFBFD" transform="translate(228,145)"/>
<path d="M0 0 C6.30267439 0.36776168 11.33251843 1.16625922 17 4 C17 4.33 17 4.66 17 5 C14.69 5.33 12.38 5.66 10 6 C9.67 6.99 9.34 7.98 9 9 C10.37249963 11.67676547 10.37249963 11.67676547 12 14 C12.99 13.67 13.98 13.34 15 13 C17.125 18.625 17.125 18.625 16 22 C11.28578422 18.85718948 8.62051574 14.79337528 5.55078125 10.14453125 C4.17613605 7.89526639 4.17613605 7.89526639 2 7 C1.26924352 4.6859378 0.59861742 2.35171131 0 0 Z " fill="#84C6F1" transform="translate(53,89)"/>
<path d="M0 0 C2.10388569 -0.05402274 4.20816714 -0.09280256 6.3125 -0.125 C8.07013672 -0.15980469 8.07013672 -0.15980469 9.86328125 -0.1953125 C13 0 13 0 16 2 C9.71428571 4.42857143 9.71428571 4.42857143 6 3 C5.01 5.31 4.02 7.62 3 10 C3.66 10 4.32 10 5 10 C5 10.66 5 11.32 5 12 C5.66 12 6.32 12 7 12 C7 13.32 7 14.64 7 16 C5.0085944 16.38133299 3.00720923 16.71325582 1 17 C0 16 0 16 -0.09765625 12.40234375 C-0.0909822 10.91403133 -0.07902183 9.42573568 -0.0625 7.9375 C-0.05798828 7.17888672 -0.05347656 6.42027344 -0.04882812 5.63867188 C-0.0370068 3.75908129 -0.01907078 1.87953101 0 0 Z " fill="#6CA43B" transform="translate(48,146)"/>
<path d="M0 0 C0.33 0.99 0.66 1.98 1 3 C0.01 3.495 0.01 3.495 -1 4 C-1.65772428 7.02934491 -1.65772428 7.02934491 -2 10 C-5.375 10.625 -5.375 10.625 -9 11 C-9.66 10.34 -10.32 9.68 -11 9 C-9.68 8.67 -8.36 8.34 -7 8 C-6.67 6.35 -6.34 4.7 -6 3 C-5.01 3 -4.02 3 -3 3 C-3 2.34 -3 1.68 -3 1 C-2.01 0.67 -1.02 0.34 0 0 Z M-13 10 C-10 11 -10 11 -9 13 C-8.76923077 18.53846154 -8.76923077 18.53846154 -10 21 C-11.65 20.67 -13.3 20.34 -15 20 C-15 17.03 -15 14.06 -15 11 C-14.34 10.67 -13.68 10.34 -13 10 Z " fill="#52ADE4" transform="translate(216,59)"/>
<path d="M0 0 C-0.47440145 3.87427849 -1.02987859 6.05829219 -3.8671875 8.8125 C-12.95372471 15.48589126 -28.2269721 24.13932528 -40 23 C-35.63577609 20.67836682 -31.00205808 18.99336669 -26.40039062 17.2109375 C-23.35175004 16.01206792 -20.73793008 14.82528672 -18 13 C-17.01 13 -16.02 13 -15 13 C-15 12.34 -15 11.68 -15 11 C-10.61538462 8 -10.61538462 8 -8 8 C-7.67 7.01 -7.34 6.02 -7 5 C-2.46511628 0 -2.46511628 0 0 0 Z " fill="#DCF8FD" transform="translate(182,102)"/>
<path d="M0 0 C0.66 0.33 1.32 0.66 2 1 C1.979375 1.9075 1.95875 2.815 1.9375 3.75 C1.98951889 6.45498249 2.29177628 8.43478023 3 11 C3.67546875 10.77183594 4.3509375 10.54367188 5.046875 10.30859375 C5.93890625 10.02113281 6.8309375 9.73367187 7.75 9.4375 C8.63171875 9.14746094 9.5134375 8.85742188 10.421875 8.55859375 C13.07834316 7.98302565 14.47031106 8.10751629 17 9 C16.8125 10.875 16.8125 10.875 16 13 C12.35134763 15.08494421 9.14293385 15.49715206 5 15 C2.50354232 13.84236841 0.32845084 12.49020854 -2 11 C-2.25 3.375 -2.25 3.375 0 0 Z " fill="#6BA9CE" transform="translate(144,149)"/>
<path d="M0 0 C-4.50658872 5.4722863 -10.51866557 8.31329299 -17 11 C-17.99 11 -18.98 11 -20 11 C-20 10.34 -20 9.68 -20 9 C-19.43410156 8.80664062 -18.86820313 8.61328125 -18.28515625 8.4140625 C-17.55167969 8.15367188 -16.81820312 7.89328125 -16.0625 7.625 C-15.33160156 7.36976562 -14.60070312 7.11453125 -13.84765625 6.8515625 C-11.81317884 6.14728587 -11.81317884 6.14728587 -11 4 C-9.02111039 3.27306096 -7.02045442 2.60183749 -5 2 C-11.64041122 0.77600548 -18.20221697 0.88772247 -24.9375 0.9375 C-26.09830078 0.94201172 -27.25910156 0.94652344 -28.45507812 0.95117188 C-31.30343934 0.96289353 -34.15169222 0.9793024 -37 1 C-37 0.67 -37 0.34 -37 0 C-24.49520099 -2.12847643 -12.39197481 -3.41847581 0 0 Z " fill="#72A64D" transform="translate(189,52)"/>
<path d="M0 0 C1.65 0 3.3 0 5 0 C5 5.28 5 10.56 5 16 C1 17 1 17 -1 16 C-1.02685095 13.52076199 -1.04676547 11.0418116 -1.0625 8.5625 C-1.07506836 7.50192383 -1.07506836 7.50192383 -1.08789062 6.41992188 C-1.09653588 4.61306441 -1.05220011 2.80612397 -1 1 C-0.67 0.67 -0.34 0.34 0 0 Z " fill="#70AACC" transform="translate(184,146)"/>
<path d="M0 0 C0.66 0 1.32 0 2 0 C2 0.66 2 1.32 2 2 C2.66 2 3.32 2 4 2 C3.53199289 6.05606165 3.12046792 9.46588679 1 13 C0.01 13 -0.98 13 -2 13 C-2 15.31 -2 17.62 -2 20 C-2.99 19.67 -3.98 19.34 -5 19 C-6.92932559 12.89046896 -4.54092546 8.51806129 -2 3 C-1.34 3 -0.68 3 0 3 C0 2.01 0 1.02 0 0 Z " fill="#53ADE4" transform="translate(199,82)"/>
<path d="M0 0 C16.17 0 32.34 0 49 0 C49 0.33 49 0.66 49 1 C40.40712652 2.91332372 32.02170033 3.19263904 23.25 3.1875 C21.65297241 3.1884668 21.65297241 3.1884668 20.02368164 3.18945312 C3.07321836 3.07321836 3.07321836 3.07321836 0 0 Z " fill="#73A74F" transform="translate(84,48)"/>
<path d="M0 0 C-1.32 0.33 -2.64 0.66 -4 1 C-4.5921804 4.01239597 -5.04772336 6.92449467 -5 10 C-3.15014823 12.55151968 -1.7804657 13.60976715 1 15 C0.67 15.66 0.34 16.32 0 17 C-3.057952 15.26440562 -5.63379989 13.61527381 -8 11 C-8.144375 11.804375 -8.28875 12.60875 -8.4375 13.4375 C-9 16 -9 16 -10 17 C-11.66617115 17.04063832 -13.33388095 17.042721 -15 17 C-14.67 16.34 -14.34 15.68 -14 15 C-13.01 15 -12.02 15 -11 15 C-10.67 10.05 -10.34 5.1 -10 0 C-8.68 0 -7.36 0 -6 0 C-3 -1 -3 -1 0 0 Z " fill="#E6FAFD" transform="translate(199,147)"/>
<path d="M0 0 C1.54422728 3.08845456 1.01767465 6.18743204 0.9375 9.58984375 C0.88659364 12.14566188 0.88659364 12.14566188 2 15 C3.32 15 4.64 15 6 15 C5.67 13.68 5.34 12.36 5 11 C6.43836751 11.11458693 7.87570966 11.24209116 9.3125 11.375 C10.11300781 11.44460937 10.91351563 11.51421875 11.73828125 11.5859375 C14 12 14 12 17 14 C17 14.66 17 15.32 17 16 C14.02760209 17.48619895 11.30380422 17.13177009 8 17.125 C6.1128125 17.12886719 6.1128125 17.12886719 4.1875 17.1328125 C1 17 1 17 -1 16 C-1.02685095 13.52076199 -1.04676547 11.0418116 -1.0625 8.5625 C-1.07506836 7.50192383 -1.07506836 7.50192383 -1.08789062 6.41992188 C-1.09653588 4.61306441 -1.05220011 2.80612397 -1 1 C-0.67 0.67 -0.34 0.34 0 0 Z " fill="#7DAB59" transform="translate(91,146)"/>
<path d="M0 0 C1.5778125 0.495 1.5778125 0.495 3.1875 1 C6.38873357 1.83966782 8.7411008 2.19750904 12 2 C12 4.31 12 6.62 12 9 C11.67 8.34 11.34 7.68 11 7 C6.71 7 2.42 7 -2 7 C-2 2 -2 2 0 0 Z " fill="#FAFDFC" transform="translate(151,150)"/>
<path d="M0 0 C0.99 -0.00386719 1.98 -0.00773438 3 -0.01171875 C11.53786371 -0.00045508 19.46904878 0.52203685 27.625 3.125 C27.625 3.455 27.625 3.785 27.625 4.125 C25.02047729 3.98413398 22.41649803 3.83751536 19.8125 3.6875 C19.07451172 3.64818359 18.33652344 3.60886719 17.57617188 3.56835938 C14.39428658 3.38118965 11.66337622 3.13779207 8.625 2.125 C6.11318571 2.02882693 3.63583378 1.98565238 1.125 2 C0.10986328 1.99419922 0.10986328 1.99419922 -0.92578125 1.98828125 C-4.01573767 1.99437584 -6.42179311 2.1405977 -9.375 3.125 C-11.26970816 3.1935495 -13.1666834 3.20980372 -15.0625 3.1875 C-16.05636719 3.17847656 -17.05023438 3.16945313 -18.07421875 3.16015625 C-19.21310547 3.14275391 -19.21310547 3.14275391 -20.375 3.125 C-15.70088101 -1.54911899 -6.19571021 -0.02401438 0 0 Z " fill="#77AA56" transform="translate(127.375,11.875)"/>
<path d="M0 0 C0 0.33 0 0.66 0 1 C-1.65 1 -3.3 1 -5 1 C-5 2.32 -5 3.64 -5 5 C-2.69 5.33 -0.38 5.66 2 6 C2 6.99 2 7.98 2 9 C0.02 9 -1.96 9 -4 9 C-4.33 10.65 -4.66 12.3 -5 14 C-5.66 14 -6.32 14 -7 14 C-8.78409802 10.93753253 -9.22880021 8.77920727 -9.125 5.25 C-9.10695313 4.45078125 -9.08890625 3.6515625 -9.0703125 2.828125 C-9.04710938 2.22484375 -9.02390625 1.6215625 -9 1 C-6.04335481 -0.4783226 -3.25770263 -0.06032783 0 0 Z " fill="#61A939" transform="translate(80,147)"/>
<path d="M0 0 C2.375 1 2.375 1 4 2 C3.67 3.32 3.34 4.64 3 6 C-1.455 5.01 -1.455 5.01 -6 4 C-6 3.34 -6 2.68 -6 2 C-6.66 2 -7.32 2 -8 2 C-8.33 3.65 -8.66 5.3 -9 7 C-7.02 7.99 -5.04 8.98 -3 10 C-5.84961767 11.16095535 -6.83945073 11.06567925 -9.75 9.875 C-12 8 -12 8 -12.3125 5.3125 C-12.209375 4.549375 -12.10625 3.78625 -12 3 C-7.78929481 0.59388275 -4.86324671 -0.52861377 0 0 Z " fill="#6BAAD0" transform="translate(251,145)"/>
<path d="M0 0 C2.31 0.33 4.62 0.66 7 1 C7 1.33 7 1.66 7 2 C5.35 2.33 3.7 2.66 2 3 C1.67 7.62 1.34 12.24 1 17 C0.67 16.01 0.34 15.02 0 14 C-0.66 13.67 -1.32 13.34 -2 13 C-2 12.01 -2 11.02 -2 10 C-5.3 9.34 -8.6 8.68 -12 8 C-12 7.34 -12 6.68 -12 6 C-6.555 5.505 -6.555 5.505 -1 5 C-1.33 4.01 -1.66 3.02 -2 2 C-1.34 2 -0.68 2 0 2 C0 1.34 0 0.68 0 0 Z " fill="#F2FDEB" transform="translate(109,144)"/>
<path d="M0 0 C4.30499819 2.78401743 5.17073769 5.28188452 6.46484375 10.09765625 C7.69293445 16.75803138 8.05419108 22.89161783 5 29 C4.67 24.05 4.34 19.1 4 14 C3.67 15.65 3.34 17.3 3 19 C2.67 19 2.34 19 2 19 C1.93941406 18.04738281 1.87882813 17.09476563 1.81640625 16.11328125 C1.73261719 14.85902344 1.64882812 13.60476562 1.5625 12.3125 C1.48128906 11.07113281 1.40007812 9.82976563 1.31640625 8.55078125 C1.05508683 5.61819663 0.65201621 2.86558383 0 0 Z " fill="#74AFD3" transform="translate(220,19)"/>
<path d="M0 0 C0.78375 0.185625 1.5675 0.37125 2.375 0.5625 C2.91125 0.706875 3.4475 0.85125 4 1 C4 1.66 4 2.32 4 3 C1.36 3.33 -1.28 3.66 -4 4 C-4 4.66 -4 5.32 -4 6 C-2.68 6.66 -1.36 7.32 0 8 C-0.33 8.33 -0.66 8.66 -1 9 C-7.72 8.28 -7.72 8.28 -9 7 C-9.29431219 4.2040342 -9.33772308 2.56287181 -7.875 0.125 C-5.04365227 -1.57380864 -3.12473492 -0.76524121 0 0 Z " fill="#EBFBEC" transform="translate(39,150)"/>
<path d="M0 0 C0.66 0 1.32 0 2 0 C2.33 1.32 2.66 2.64 3 4 C4.7015625 4.4640625 4.7015625 4.4640625 6.4375 4.9375 C10 6 10 6 11 7 C11.04063832 8.66617115 11.042721 10.33388095 11 12 C9.35 12 7.7 12 6 12 C5.938125 11.071875 5.938125 11.071875 5.875 10.125 C5.58625 9.42375 5.2975 8.7225 5 8 C2.00384054 6.6954344 2.00384054 6.6954344 -1 6 C-1 2 -1 2 0 0 Z " fill="#5DACDB" transform="translate(243,147)"/>
<path d="M0 0 C0.33 0 0.66 0 1 0 C1.33 3.63 1.66 7.26 2 11 C4.97 11.33 7.94 11.66 11 12 C11.33 11.01 11.66 10.02 12 9 C12 11.31 12 13.62 12 16 C11.34 16.33 10.68 16.66 10 17 C9.67 16.34 9.34 15.68 9 15 C6.64400765 14.53248212 6.64400765 14.53248212 3.9375 14.375 C3.01839844 14.30023438 2.09929687 14.22546875 1.15234375 14.1484375 C0.44207031 14.09945312 -0.26820313 14.05046875 -1 14 C-1.02685938 11.85423363 -1.04633088 9.70837355 -1.0625 7.5625 C-1.07410156 6.36753906 -1.08570313 5.17257813 -1.09765625 3.94140625 C-1 1 -1 1 0 0 Z " fill="#D3F1FA" transform="translate(171,145)"/>
<path d="M0 0 C1.65 0 3.3 0 5 0 C5 3.96 5 7.92 5 12 C4.67 12 4.34 12 4 12 C4 9.03 4 6.06 4 3 C3.34 3 2.68 3 2 3 C1.67 7.29 1.34 11.58 1 16 C0.34 16 -0.32 16 -1 16 C-1.02685095 13.52076199 -1.04676547 11.0418116 -1.0625 8.5625 C-1.07506836 7.50192383 -1.07506836 7.50192383 -1.08789062 6.41992188 C-1.09653588 4.61306441 -1.05220011 2.80612397 -1 1 C-0.67 0.67 -0.34 0.34 0 0 Z " fill="#5CA8D7" transform="translate(165,146)"/>
<path d="M0 0 C1.18851563 0.00902344 2.37703125 0.01804688 3.6015625 0.02734375 C4.51679687 0.03894531 5.43203125 0.05054688 6.375 0.0625 C6.375 0.3925 6.375 0.7225 6.375 1.0625 C-0.06 1.5575 -0.06 1.5575 -6.625 2.0625 C-6.295 7.6725 -5.965 13.2825 -5.625 19.0625 C-6.285 19.0625 -6.945 19.0625 -7.625 19.0625 C-9.46110406 16.3083439 -10.14304278 14.69945953 -10.875 11.5625 C-11.06578125 10.7890625 -11.2565625 10.015625 -11.453125 9.21875 C-11.625 7.0625 -11.625 7.0625 -9.625 4.0625 C-9.295 5.7125 -8.965 7.3625 -8.625 9.0625 C-8.625 6.4225 -8.625 3.7825 -8.625 1.0625 C-5.74084117 -0.37957941 -3.20778472 -0.03144887 0 0 Z " fill="#F2FDE9" transform="translate(54.625,143.9375)"/>
<path d="M0 0 C1.98 0 3.96 0 6 0 C6.125 4.75 6.125 4.75 5 7 C5.08651631 8.54613014 5.24002636 10.08909387 5.4375 11.625 C5.53933594 12.44226563 5.64117187 13.25953125 5.74609375 14.1015625 C5.82988281 14.72804687 5.91367187 15.35453125 6 16 C5.01 16 4.02 16 3 16 C3.33 14.35 3.66 12.7 4 11 C0.8745041 8.35534962 -2.08788267 7.15585285 -6 6 C-6 5.34 -6 4.68 -6 4 C-3.03 4.33 -0.06 4.66 3 5 C3.33 4.01 3.66 3.02 4 2 C2.68 1.34 1.36 0.68 0 0 Z " fill="#DDFAFD" transform="translate(251,145)"/>
<path d="M0 0 C-2.58547862 2.58547862 -5.41794837 3.37975148 -8.8125 4.5 C-9.47451416 4.72067139 -10.13652832 4.94134277 -10.81860352 5.16870117 C-17.10911628 7.18157529 -23.43950045 8.25876312 -30 9 C-30 8.34 -30 7.68 -30 7 C-28.72125 6.87625 -27.4425 6.7525 -26.125 6.625 C-22.65209064 6.30957601 -22.65209064 6.30957601 -20 4 C-17.5390625 3.4375 -17.5390625 3.4375 -14.625 3 C-9.38049483 2.20837658 -5.31034809 -0.29501934 0 0 Z " fill="#71A64C" transform="translate(169,63)"/>
<path d="M0 0 C4.62 0 9.24 0 14 0 C14.33 0.99 14.66 1.98 15 3 C12.24921116 3.91692961 10.64051087 4.10886083 7.8125 4.0625 C5.9253125 4.0315625 5.9253125 4.0315625 4 4 C3.67 4.66 3.34 5.32 3 6 C2 4 1 2 0 0 Z " fill="#6BA24C" transform="translate(93,146)"/>
<path d="M0 0 C2.92879371 0.62759865 5.36095629 1.58622659 8 3 C7.67 4.65 7.34 6.3 7 8 C5.02 8.33 3.04 8.66 1 9 C-0.4783226 6.04335481 -0.06032783 3.25770263 0 0 Z " fill="#77AD58" transform="translate(54,148)"/>
<path d="M0 0 C1.65 0.33 3.3 0.66 5 1 C5 5.95 5 10.9 5 16 C3.35 16.33 1.7 16.66 0 17 C0.66 16.67 1.32 16.34 2 16 C2.47001033 12.72444392 2.47001033 12.72444392 2.625 8.9375 C2.69976562 7.64714844 2.77453125 6.35679687 2.8515625 5.02734375 C2.90054688 4.02832031 2.94953125 3.02929688 3 2 C2.01 2 1.02 2 0 2 C0 3.98 0 5.96 0 8 C-0.33 8 -0.66 8 -1 8 C-1.04241723 5.66705225 -1.04092937 3.33297433 -1 1 C-0.67 0.67 -0.34 0.34 0 0 Z " fill="#6DA458" transform="translate(127,146)"/>
<path d="M0 0 C2.31 0 4.62 0 7 0 C8.54897985 3.0979597 7.83239539 6.26216552 7.5625 9.625 C7.51029297 10.33140625 7.45808594 11.0378125 7.40429688 11.765625 C7.27458793 13.51079987 7.13795046 15.25545725 7 17 C6.67 17 6.34 17 6 17 C5.67 12.38 5.34 7.76 5 3 C3.68 3 2.36 3 1 3 C0.67 5.31 0.34 7.62 0 10 C-1.32 9.34 -2.64 8.68 -4 8 C-2.68 5.36 -1.36 2.72 0 0 Z " fill="#D2EAD2" transform="translate(126,144)"/>
<path d="M0 0 C0.33 0 0.66 0 1 0 C1 1.98 1 3.96 1 6 C0.01 6.495 0.01 6.495 -1 7 C-1 6.01 -1 5.02 -1 4 C-1.62044189 4.2172876 -2.24088379 4.4345752 -2.88012695 4.65844727 C-5.68775373 5.63584725 -8.49997012 6.59930484 -11.3125 7.5625 C-12.28896484 7.90474609 -13.26542969 8.24699219 -14.27148438 8.59960938 C-15.20927734 8.91865234 -16.14707031 9.23769531 -17.11328125 9.56640625 C-17.97735596 9.86490479 -18.84143066 10.16340332 -19.73168945 10.47094727 C-22 11 -22 11 -25 10 C-24.27820557 9.7326001 -23.55641113 9.4652002 -22.81274414 9.18969727 C-19.56160355 7.98346407 -16.31203908 6.77304056 -13.0625 5.5625 C-11.92619141 5.14162109 -10.78988281 4.72074219 -9.61914062 4.28710938 C-8.53955078 3.88427734 -7.45996094 3.48144531 -6.34765625 3.06640625 C-5.34742432 2.69459229 -4.34719238 2.32277832 -3.31665039 1.93969727 C-1.07620783 1.20602925 -1.07620783 1.20602925 0 0 Z " fill="#76B4D8" transform="translate(192,72)"/>
<path d="M0 0 C0.33 0.66 0.66 1.32 1 2 C-1 4 -1 4 -4 5 C-5.66710346 6.49985609 -5.66710346 6.49985609 -7 8 C-5.68 8.66 -4.36 9.32 -3 10 C-4.8125 11.0625 -4.8125 11.0625 -7 12 C-7.99 11.67 -8.98 11.34 -10 11 C-9.67 10.34 -9.34 9.68 -9 9 C-10.65 9.66 -12.3 10.32 -14 11 C-14.66 10.34 -15.32 9.68 -16 9 C-15.02160156 8.52820313 -15.02160156 8.52820313 -14.0234375 8.046875 C-9.10344145 5.6376734 -4.4667826 3.17376659 0 0 Z " fill="#6FB2D7" transform="translate(177,110)"/>
<path d="M0 0 C0.99 0 1.98 0 3 0 C3 3.96 3 7.92 3 12 C2.01 12 1.02 12 0 12 C-1.6875 10 -1.6875 10 -3 8 C-2.34 7.34 -1.68 6.68 -1 6 C-0.60235737 4.01178687 -0.26224651 2.01055661 0 0 Z " fill="#63A833" transform="translate(127,148)"/>
<path d="M0 0 C1.32 0 2.64 0 4 0 C5.41990291 6.94174757 5.41990291 6.94174757 4 10 C2.02 10.99 2.02 10.99 0 12 C0 8.04 0 4.08 0 0 Z " fill="#4FADE5" transform="translate(219,149)"/>
<path d="M0 0 C0.66 0 1.32 0 2 0 C3.7143618 1.95927063 5.38405168 3.95880212 7 6 C7.99 5.67 8.98 5.34 10 5 C12.125 10.625 12.125 10.625 11 14 C6.38598541 10.74304853 2.99637562 6.75713243 0 2 C0 1.34 0 0.68 0 0 Z " fill="#7FB8DD" transform="translate(58,97)"/>
<path d="M0 0 C0.66 0 1.32 0 2 0 C1.62875 1.0725 1.2575 2.145 0.875 3.25 C-0.31491732 6.81629347 -0.31491732 6.81629347 0.875 9.4375 C1.431875 10.2109375 1.431875 10.2109375 2 11 C-0.25 11.6875 -0.25 11.6875 -3 12 C-5.3125 10.6875 -5.3125 10.6875 -7 9 C-7 8.34 -7 7.68 -7 7 C-5.68 7.33 -4.36 7.66 -3 8 C-2.67 6.35 -2.34 4.7 -2 3 C-1.34 3 -0.68 3 0 3 C0 2.01 0 1.02 0 0 Z " fill="#71A657" transform="translate(65,151)"/>
<path d="M0 0 C0.66 0.33 1.32 0.66 2 1 C1.484375 1.495 0.96875 1.99 0.4375 2.5 C-1.7171081 6.24714452 -0.76845154 8.80844613 0 13 C1.175625 13.433125 1.175625 13.433125 2.375 13.875 C5 15 5 15 7 17 C3.62537285 16.45276317 1.91765 15.9451 -1 14 C-1 13.34 -1 12.68 -1 12 C-1.99 12.33 -2.98 12.66 -4 13 C-4 10.03 -4 7.06 -4 4 C-3.01 3.67 -2.02 3.34 -1 3 C-0.67 2.01 -0.34 1.02 0 0 Z " fill="#F4FBDF" transform="translate(25,147)"/>
<path d="M0 0 C1 3 1 3 1 7 C1.99 7.33 2.98 7.66 4 8 C4.33 8.99 4.66 9.98 5 11 C8.18762365 13.12508244 10.26512223 13.5020163 14 14 C14 14.33 14 14.66 14 15 C7.87720257 15.4998202 4.89246242 14.45350289 0 11 C-1.94769782 8.48422364 -2.06402711 7.5378277 -1.6875 4.375 C-1 2 -1 2 0 0 Z " fill="#82A957" transform="translate(25,149)"/>
<path d="M0 0 C1.65 0 3.3 0 5 0 C5.33 0.99 5.66 1.98 6 3 C4.68 3 3.36 3 2 3 C2.33 7.29 2.66 11.58 3 16 C2.01 16 1.02 16 0 16 C0 10.72 0 5.44 0 0 Z " fill="#68A7CD" transform="translate(217,146)"/>
<path d="M0 0 C1.47906892 -0.02689216 2.95827483 -0.04634621 4.4375 -0.0625 C5.26121094 -0.07410156 6.08492187 -0.08570313 6.93359375 -0.09765625 C9 0 9 0 10 1 C10.04092937 3.33297433 10.04241723 5.66705225 10 8 C9.01 8 8.02 8 7 8 C6.67 6.02 6.34 4.04 6 2 C4.68 1.67 3.36 1.34 2 1 C2 1.66 2 2.32 2 3 C2.66 3.33 3.32 3.66 4 4 C2.35 3.67 0.7 3.34 -1 3 C-0.67 2.01 -0.34 1.02 0 0 Z " fill="#73A66D" transform="translate(35,153)"/>
<path d="M0 0 C0.79921875 0.11085937 1.5984375 0.22171875 2.421875 0.3359375 C3.02515625 0.43132813 3.6284375 0.52671875 4.25 0.625 C4.25 0.955 4.25 1.285 4.25 1.625 C-15.71810934 5.06919134 -15.71810934 5.06919134 -24.75 4.625 C-24.75 4.295 -24.75 3.965 -24.75 3.625 C-23.08710937 3.44324219 -23.08710937 3.44324219 -21.390625 3.2578125 C-19.92703766 3.08893704 -18.46349843 2.91964428 -17 2.75 C-16.27039063 2.67136719 -15.54078125 2.59273437 -14.7890625 2.51171875 C-9.4194191 1.87712453 -5.33605584 -0.78471409 0 0 Z " fill="#EAFBDB" transform="translate(147.75,51.375)"/>
<path d="M0 0 C3 2 3 2 3.3984375 3.875 C3.39070312 4.57625 3.38296875 5.2775 3.375 6 C3.38273438 6.70125 3.39046875 7.4025 3.3984375 8.125 C3 10 3 10 0 12 C-0.99 11.34 -1.98 10.68 -3 10 C-3 9.34 -3 8.68 -3 8 C-3.99 7.67 -4.98 7.34 -6 7 C-4.02 7 -2.04 7 0 7 C0 4.69 0 2.38 0 0 Z " fill="#76A756" transform="translate(192,36)"/>
<path d="M0 0 C0.99 0.33 1.98 0.66 3 1 C3.92470553 5.71599818 4.22923777 8.67265609 2 13 C1.34 13 0.68 13 0 13 C0 8.71 0 4.42 0 0 Z " fill="#63A932" transform="translate(112,147)"/>
<path d="M0 0 C4.29 0 8.58 0 13 0 C12.67 0.99 12.34 1.98 12 3 C13.65 3 15.3 3 17 3 C17 3.33 17 3.66 17 4 C10.54107286 4.40368295 5.93891422 3.5915262 0 1 C0 0.67 0 0.34 0 0 Z " fill="#F0FBE6" transform="translate(100,52)"/>
<path d="M0 0 C0.99 0.33 1.98 0.66 3 1 C3 4.96 3 8.92 3 13 C2.01 13 1.02 13 0 13 C0 8.71 0 4.42 0 0 Z " fill="#53ACDF" transform="translate(185,148)"/>
<path d="M0 0 C-1.32 0.33 -2.64 0.66 -4 1 C-4.66 3.64 -5.32 6.28 -6 9 C-6.33 9 -6.66 9 -7 9 C-7.33 7.35 -7.66 5.7 -8 4 C-8.33 7.3 -8.66 10.6 -9 14 C-9.33 14 -9.66 14 -10 14 C-10 9.38 -10 4.76 -10 0 C-8.68 0 -7.36 0 -6 0 C-3 -1 -3 -1 0 0 Z " fill="#D2F1FD" transform="translate(199,147)"/>
<path d="M0 0 C0.99 0 1.98 0 3 0 C2.34 1.98 1.68 3.96 1 6 C-0.32 6 -1.64 6 -3 6 C-2.67 6.99 -2.34 7.98 -2 9 C-4.31 9.33 -6.62 9.66 -9 10 C-9.33 9.34 -9.66 8.68 -10 8 C-8.35 8 -6.7 8 -5 8 C-5 7.01 -5 6.02 -5 5 C-4.34 5 -3.68 5 -3 5 C-2.690625 4.360625 -2.38125 3.72125 -2.0625 3.0625 C-1 1 -1 1 0 0 Z " fill="#52ADE3" transform="translate(188,102)"/>
<path d="M0 0 C0.66 0.33 1.32 0.66 2 1 C1.875 2.8125 1.875 2.8125 1 5 C-2.20883825 6.95320589 -4.2205439 8 -8 8 C-8 11.3 -8 14.6 -8 18 C-8.33 18 -8.66 18 -9 18 C-9 14.37 -9 10.74 -9 7 C-8.01 7 -7.02 7 -6 7 C-6 6.34 -6 5.68 -6 5 C-4.34467377 3.98133771 -2.67739862 2.98189187 -1 2 C-0.67 1.34 -0.34 0.68 0 0 Z " fill="#6EAED4" transform="translate(208,62)"/>
<path d="M0 0 C0.33 0 0.66 0 1 0 C1 5.28 1 10.56 1 16 C0.01 16 -0.98 16 -2 16 C-1.85975781 13.52039864 -1.7130815 11.04147598 -1.5625 8.5625 C-1.52318359 7.85544922 -1.48386719 7.14839844 -1.44335938 6.41992188 C-1.11328125 1.11328125 -1.11328125 1.11328125 0 0 Z " fill="#57AADC" transform="translate(224,32)"/>
<path d="M0 0 C0.66 0 1.32 0 2 0 C2.06058594 0.61488281 2.12117187 1.22976562 2.18359375 1.86328125 C2.26738281 2.67152344 2.35117188 3.47976562 2.4375 4.3125 C2.51871094 5.11300781 2.59992188 5.91351563 2.68359375 6.73828125 C2.95265693 9.16087179 2.95265693 9.16087179 4 12 C2.35 12 0.7 12 -1 12 C-0.67 8.04 -0.34 4.08 0 0 Z " fill="#50ADE3" transform="translate(167,149)"/>
<path d="M0 0 C0.99 0.33 1.98 0.66 3 1 C2.21625 1.763125 1.4325 2.52625 0.625 3.3125 C-3.02025581 6.90779001 -3.02025581 6.90779001 -4.125 11.6875 C-4.08375 12.450625 -4.0425 13.21375 -4 14 C-4.66 14 -5.32 14 -6 14 C-7.0625 11.625 -7.0625 11.625 -8 9 C-7.67 8.34 -7.34 7.68 -7 7 C-6.01 7 -5.02 7 -4 7 C-4 6.01 -4 5.02 -4 4 C-3.34 4 -2.68 4 -2 4 C-1.34 2.68 -0.68 1.36 0 0 Z " fill="#E8F8DC" transform="translate(61,37)"/>
<path d="M0 0 C2.625 -0.1875 2.625 -0.1875 5 0 C5 0.66 5 1.32 5 2 C2.90163996 3.03271642 0.79609109 4.05083717 -1.3125 5.0625 C-2.48425781 5.63097656 -3.65601563 6.19945313 -4.86328125 6.78515625 C-8 8 -8 8 -11 7 C-9.35 6.67 -7.7 6.34 -6 6 C-6 5.34 -6 4.68 -6 4 C-5.38125 3.896875 -4.7625 3.79375 -4.125 3.6875 C-1.63473516 3.12474627 -1.63473516 3.12474627 0 0 Z " fill="#6DB0D8" transform="translate(162,113)"/>
<path d="M0 0 C0.66 0.33 1.32 0.66 2 1 C2 4.3 2 7.6 2 11 C0.68 10.34 -0.64 9.68 -2 9 C-2.25 3.375 -2.25 3.375 0 0 Z " fill="#55ABE2" transform="translate(144,149)"/>
<path d="M0 0 C0.33 0 0.66 0 1 0 C0.28950666 7.10493344 -2.2989257 12.00778446 -6 18 C-6.33 17.34 -6.66 16.68 -7 16 C-6.07421875 13.57421875 -6.07421875 13.57421875 -4.6875 10.6875 C-3.00771667 7.15947369 -1.41369226 3.64374203 0 0 Z " fill="#69ABD0" transform="translate(191,80)"/>
<path d="M0 0 C1.98 0.66 3.96 1.32 6 2 C6 2.66 6 3.32 6 4 C4.68 4 3.36 4 2 4 C2.33 6.31 2.66 8.62 3 11 C0.60236815 8.60236815 0.65719414 7.66726502 0.375 4.375 C0.30023438 3.55773437 0.22546875 2.74046875 0.1484375 1.8984375 C0.09945312 1.27195312 0.05046875 0.64546875 0 0 Z " fill="#79B3D6" transform="translate(49,74)"/>
<path d="M0 0 C0.66 0.33 1.32 0.66 2 1 C1.04801289 2.64951226 0.08820855 4.29451508 -0.875 5.9375 C-1.40867188 6.85402344 -1.94234375 7.77054687 -2.4921875 8.71484375 C-4 11 -4 11 -6 12 C-6 10.02 -6 8.04 -6 6 C-5.01 6 -4.02 6 -3 6 C-2.67 4.68 -2.34 3.36 -2 2 C-1.34 2 -0.68 2 0 2 C0 1.34 0 0.68 0 0 Z " fill="#6DAFD8" transform="translate(203,89)"/>
<path d="M0 0 C0.99 0 1.98 0 3 0 C3 1.32 3 2.64 3 4 C2.34 4 1.68 4 1 4 C0.67 4.99 0.34 5.98 0 7 C-1.65 7 -3.3 7 -5 7 C-5.33 6.34 -5.66 5.68 -6 5 C-4.02 4.67 -2.04 4.34 0 4 C0 2.68 0 1.36 0 0 Z " fill="#ECFBE8" transform="translate(55,158)"/>
<path d="M0 0 C9.41002278 -0.3690205 9.41002278 -0.3690205 14 2 C14 2.99 14 3.98 14 5 C11.5625 4.625 11.5625 4.625 9 4 C8.67 3.34 8.34 2.68 8 2 C6.10466658 1.53476937 6.10466658 1.53476937 3.9375 1.375 C2.638125 1.25125 1.33875 1.1275 0 1 C0 0.67 0 0.34 0 0 Z " fill="#67A53E" transform="translate(149,16)"/>
<path d="M0 0 C0.66 0 1.32 0 2 0 C1.93489583 1.98567708 1.86979167 3.97135417 1.8046875 5.95703125 C1.86745538 8.31359719 1.86745538 8.31359719 4 11 C0.125 10.125 0.125 10.125 -1 9 C-1.1328125 7.1875 -1.1328125 7.1875 -1.125 5 C-1.12757813 4.278125 -1.13015625 3.55625 -1.1328125 2.8125 C-1 1 -1 1 0 0 Z " fill="#50ACE5" transform="translate(197,149)"/>
<path d="M0 0 C0.66 0.66 1.32 1.32 2 2 C-3.66748157 4.83374078 -8.69732561 5.63223832 -15 6 C-11.8367155 4.3279782 -8.6178082 3.07778864 -5.25 1.875 C-4.26515625 1.52179688 -3.2803125 1.16859375 -2.265625 0.8046875 C-1.14414063 0.40636719 -1.14414063 0.40636719 0 0 Z " fill="#C5F3FC" transform="translate(157,119)"/>
<path d="M0 0 C0.33 0 0.66 0 1 0 C0.67 3.3 0.34 6.6 0 10 C0.99 10 1.98 10 3 10 C2.67 11.65 2.34 13.3 2 15 C-0.0625 12.9375 -0.0625 12.9375 -2 10 C-1.81170224 6.3595767 -1.14922369 3.44767107 0 0 Z " fill="#69AED4" transform="translate(222,38)"/>
<path d="M0 0 C0 0.99 0 1.98 0 3 C-0.86625 2.835 -1.7325 2.67 -2.625 2.5 C-5.81225199 2.02781452 -8.78485027 1.92344882 -12 2 C-12 1.67 -12 1.34 -12 1 C-7.58774263 -0.47075246 -4.51718381 -1.36884358 0 0 Z " fill="#72ACCE" transform="translate(214,158)"/>
<path d="M0 0 C0.33 0 0.66 0 1 0 C1.22126178 2.45779976 1.42750395 4.91527648 1.625 7.375 C1.68945312 8.07367188 1.75390625 8.77234375 1.8203125 9.4921875 C1.96119739 11.32369111 1.98761659 13.16312748 2 15 C0 17 0 17 -3.125 17.125 C-4.548125 17.063125 -4.548125 17.063125 -6 17 C-3 15 -3 15 -1 14 C-0.52998967 10.72444392 -0.52998967 10.72444392 -0.375 6.9375 C-0.26285156 5.00197266 -0.26285156 5.00197266 -0.1484375 3.02734375 C-0.09945312 2.02832031 -0.05046875 1.02929688 0 0 Z " fill="#EDFCF1" transform="translate(133,147)"/>
<path d="M0 0 C1.65 0 3.3 0 5 0 C5.33 0.66 5.66 1.32 6 2 C5.236875 2.2475 4.47375 2.495 3.6875 2.75 C0.7635955 4.10995558 -0.30004356 5.31585826 -2 8 C-3.125 4.25 -3.125 4.25 -2 2 C-1.34 2 -0.68 2 0 2 C0 1.34 0 0.68 0 0 Z " fill="#DCFAFE" transform="translate(202,149)"/>
<path d="M0 0 C2.97 0.495 2.97 0.495 6 1 C5.67 1.66 5.34 2.32 5 3 C4.34 3 3.68 3 3 3 C3.02320313 3.61488281 3.04640625 4.22976562 3.0703125 4.86328125 C3.08835938 5.67152344 3.10640625 6.47976562 3.125 7.3125 C3.14820313 8.11300781 3.17140625 8.91351563 3.1953125 9.73828125 C3 12 3 12 1 15 C1.01160156 14.16855469 1.02320313 13.33710937 1.03515625 12.48046875 C1.04417969 11.39378906 1.05320313 10.30710937 1.0625 9.1875 C1.07410156 8.10855469 1.08570313 7.02960938 1.09765625 5.91796875 C1.13624766 2.93487831 1.13624766 2.93487831 0 0 Z " fill="#68ACD3" transform="translate(205,69)"/>
<path d="M0 0 C2.015625 0.98828125 2.015625 0.98828125 4 3 C4.13117541 5.89480289 4.06318053 8.34153404 3.75 11.1875 C3.65138672 12.31188477 3.65138672 12.31188477 3.55078125 13.45898438 C3.38592263 15.30775601 3.19541184 17.15420773 3 19 C2.67 19 2.34 19 2 19 C1.93941406 18.04738281 1.87882813 17.09476563 1.81640625 16.11328125 C1.73261719 14.85902344 1.64882812 13.60476562 1.5625 12.3125 C1.48128906 11.07113281 1.40007812 9.82976563 1.31640625 8.55078125 C1.05508683 5.61819663 0.65201621 2.86558383 0 0 Z " fill="#9AC1DA" transform="translate(220,19)"/>
<path d="M0 0 C0.66 0 1.32 0 2 0 C2 1.65 2 3.3 2 5 C3.98 5.99 5.96 6.98 8 8 C5.15038233 9.16095535 4.16054927 9.06567925 1.25 7.875 C-1 6 -1 6 -1.375 3.375 C-1 1 -1 1 0 0 Z " fill="#78ACCA" transform="translate(240,147)"/>
<path d="M0 0 C0.99 0.495 0.99 0.495 2 1 C2 2.32 2 3.64 2 5 C2.61875 4.505 3.2375 4.01 3.875 3.5 C6 2 6 2 8 2 C8 1.34 8 0.68 8 0 C8.66 0 9.32 0 10 0 C9.34 1.65 8.68 3.3 8 5 C5.69 5.33 3.38 5.66 1 6 C0.67 4.02 0.34 2.04 0 0 Z " fill="#6FAFD9" transform="translate(222,146)"/>
<path d="M0 0 C1.46300982 0.93018526 2.92025579 1.86944027 4.375 2.8125 C5.18710938 3.33457031 5.99921875 3.85664063 6.8359375 4.39453125 C9 6 9 6 11 9 C10.01 9.495 10.01 9.495 9 10 C8.67 9.34 8.34 8.68 8 8 C7.34 7.855625 6.68 7.71125 6 7.5625 C5.34 7.376875 4.68 7.19125 4 7 C3.67 6.01 3.34 5.02 3 4 C2.01 3.34 1.02 2.68 0 2 C0 1.34 0 0.68 0 0 Z " fill="#72A54E" transform="translate(181,27)"/>
<path d="M0 0 C5.75 -0.125 5.75 -0.125 8 1 C8 1.99 8 2.98 8 4 C5.04335481 5.4783226 2.25770263 5.06032783 -1 5 C-1 4.67 -1 4.34 -1 4 C0.65 3.67 2.3 3.34 4 3 C2.68 2.01 1.36 1.02 0 0 Z " fill="#7CAB6D" transform="translate(78,152)"/>
<path d="M0 0 C3.37705625 0.53725895 6.696686 1.11064623 10 2 C10 2.66 10 3.32 10 4 C7.36 4 4.72 4 2 4 C2.33 3.01 2.66 2.02 3 1 C1.68 1.33 0.36 1.66 -1 2 C-0.67 1.34 -0.34 0.68 0 0 Z " fill="#E3F9CD" transform="translate(33,149)"/>
<path d="M0 0 C-0.33 0.99 -0.66 1.98 -1 3 C-1.81210938 2.52433594 -1.81210938 2.52433594 -2.640625 2.0390625 C-5.4157149 0.81692026 -7.73208098 0.59056564 -10.75 0.375 C-12.22726563 0.26285156 -12.22726563 0.26285156 -13.734375 0.1484375 C-14.48203125 0.09945312 -15.2296875 0.05046875 -16 0 C-16 -0.33 -16 -0.66 -16 -1 C-13.89722877 -1.22197585 -11.79267698 -1.42713637 -9.6875 -1.625 C-8.51574219 -1.74101562 -7.34398437 -1.85703125 -6.13671875 -1.9765625 C-3 -2 -3 -2 0 0 Z " fill="#E6FCDF" transform="translate(66,146)"/>
<path d="M0 0 C-1.38956025 3.35810395 -2.82526467 5.18586552 -6 7 C-8.75 7.1875 -8.75 7.1875 -11 7 C-7.25 4 -7.25 4 -5 4 C-5 3.34 -5 2.68 -5 2 C-2 0 -2 0 0 0 Z " fill="#DBF5FB" transform="translate(188,111)"/>
<path d="M0 0 C0.5534764 2.07553648 1 3.84365964 1 6 C-3.38461538 9 -3.38461538 9 -6 9 C-4.47291037 5.56404834 -2.40072955 2.88087546 0 0 Z " fill="#E9FAFD" transform="translate(201,96)"/>
<path d="M0 0 C0 1.98 0 3.96 0 6 C-0.99 6.495 -0.99 6.495 -2 7 C-2 6.01 -2 5.02 -2 4 C-4.64 4.66 -7.28 5.32 -10 6 C-10 5.34 -10 4.68 -10 4 C-8.52184338 3.3310968 -7.04244528 2.66493641 -5.5625 2 C-4.73878906 1.62875 -3.91507813 1.2575 -3.06640625 0.875 C-1 0 -1 0 0 0 Z " fill="#68A9CC" transform="translate(193,72)"/>
<path d="M0 0 C0.66 0.33 1.32 0.66 2 1 C1.01 2.485 1.01 2.485 0 4 C-0.66 4 -1.32 4 -2 4 C-2 4.66 -2 5.32 -2 6 C-3.98 6.66 -5.96 7.32 -8 8 C-3.375 2.25 -3.375 2.25 0 0 Z " fill="#7DAD5C" transform="translate(73,28)"/>
<path d="M0 0 C0.66 0.33 1.32 0.66 2 1 C2 2.98 2 4.96 2 7 C0.68 6.67 -0.64 6.34 -2 6 C-1.125 1.125 -1.125 1.125 0 0 Z " fill="#61A82F" transform="translate(27,150)"/>
<path d="M0 0 C1.2065625 0.0309375 1.2065625 0.0309375 2.4375 0.0625 C1.47070312 0.59810547 1.47070312 0.59810547 0.484375 1.14453125 C-2.40460206 3.85156891 -2.15855817 5.86296879 -2.3125 9.75 C-2.36921875 10.92949219 -2.4259375 12.10898438 -2.484375 13.32421875 C-2.52304688 14.67966797 -2.52304688 14.67966797 -2.5625 16.0625 C-2.8925 16.0625 -3.2225 16.0625 -3.5625 16.0625 C-3.58935095 13.58326199 -3.60926547 11.1043116 -3.625 8.625 C-3.63756836 7.56442383 -3.63756836 7.56442383 -3.65039062 6.48242188 C-3.65903588 4.67556441 -3.61470011 2.86862397 -3.5625 1.0625 C-2.5625 0.0625 -2.5625 0.0625 0 0 Z " fill="#80AECF" transform="translate(167.5625,145.9375)"/>
<path d="M0 0 C2.97 0.33 5.94 0.66 9 1 C7.35 2.65 5.7 4.3 4 6 C4 5.01 4 4.02 4 3 C2.05990478 1.29467677 2.05990478 1.29467677 0 0 Z " fill="#79AA57" transform="translate(180,51)"/>
<path d="M0 0 C-0.66 1.32 -1.32 2.64 -2 4 C-5.63 4 -9.26 4 -13 4 C-12.67 3.34 -12.34 2.68 -12 2 C-10.6078125 2.061875 -10.6078125 2.061875 -9.1875 2.125 C-5.35552496 1.97472647 -3.80827584 0 0 0 Z " fill="#E2F8FD" transform="translate(214,161)"/>
<path d="M0 0 C0 3.96 0 7.92 0 12 C-0.99 11.34 -1.98 10.68 -3 10 C-2.34 10 -1.68 10 -1 10 C-1.66 7.03 -2.32 4.06 -3 1 C-1 0 -1 0 0 0 Z " fill="#FBFEF7" transform="translate(89,148)"/>
<path d="M0 0 C0 0.66 0 1.32 0 2 C-3.3 2.66 -6.6 3.32 -10 4 C-10 3.01 -10 2.02 -10 1 C-6.52674819 -0.1577506 -3.63932552 -0.06866652 0 0 Z " fill="#E9FAFD" transform="translate(251,143)"/>
<path d="M0 0 C1.33256282 3.64120668 0.65840377 5.66876554 -0.8125 9.1875 C-1.16957031 10.06792969 -1.52664062 10.94835937 -1.89453125 11.85546875 C-3 14 -3 14 -5 15 C-4.24029922 11.64132288 -3.12906745 8.47876342 -1.9375 5.25 C-1.57527344 4.26515625 -1.21304688 3.2803125 -0.83984375 2.265625 C-0.56269531 1.51796875 -0.28554687 0.7703125 0 0 Z " fill="#78B3D8" transform="translate(197,81)"/>
<path d="M0 0 C3.3 1.98 6.6 3.96 10 6 C8.02 6.99 8.02 6.99 6 8 C6 7.34 6 6.68 6 6 C5.34 6 4.68 6 4 6 C4 5.34 4 4.68 4 4 C2.68 3.34 1.36 2.68 0 2 C0 1.34 0 0.68 0 0 Z " fill="#E4F8D5" transform="translate(63,59)"/>
<path d="M0 0 C2 1 4 2 6 3 C6 3.66 6 4.32 6 5 C4.35 4.67 2.7 4.34 1 4 C0.67 4.99 0.34 5.98 0 7 C0 4.69 0 2.38 0 0 Z " fill="#ECFDE0" transform="translate(117,155)"/>
<path d="M0 0 C0.66 0 1.32 0 2 0 C2.309375 1.093125 2.61875 2.18625 2.9375 3.3125 C3.58337897 5.55407994 4.2623117 7.7869351 5 10 C2 9 2 9 0 6 C-0.125 2.8125 -0.125 2.8125 0 0 Z " fill="#73ABCE" transform="translate(193,151)"/>
<path d="M0 0 C2.64 0.99 5.28 1.98 8 3 C8 3.66 8 4.32 8 5 C2.25 4.125 2.25 4.125 0 3 C0 2.01 0 1.02 0 0 Z " fill="#DAF9FE" transform="translate(241,154)"/>
<path d="M0 0 C0.66 0.99 1.32 1.98 2 3 C0.02 5.97 0.02 5.97 -2 9 C-2.99 8.67 -3.98 8.34 -5 8 C-3.35 5.36 -1.7 2.72 0 0 Z " fill="#DDF6FD" transform="translate(221,57)"/>
<path d="M0 0 C0 0.66 0 1.32 0 2 C-5.625 4.125 -5.625 4.125 -9 3 C-9 2.34 -9 1.68 -9 1 C-5.94152152 0.45627049 -3.11227195 0 0 0 Z " fill="#56ABDF" transform="translate(159,159)"/>
<path d="M0 0 C2.475 0.495 2.475 0.495 5 1 C4.67 2.65 4.34 4.3 4 6 C3.34 6 2.68 6 2 6 C2 4.68 2 3.36 2 2 C1.34 2 0.68 2 0 2 C0 1.34 0 0.68 0 0 Z " fill="#64A635" transform="translate(37,154)"/>
<path d="M0 0 C0.99 0.33 1.98 0.66 3 1 C2.25 7.75 2.25 7.75 0 10 C0 6.7 0 3.4 0 0 Z " fill="#6CA62C" transform="translate(91,148)"/>
<path d="M0 0 C2.97 0 5.94 0 9 0 C9 0.99 9 1.98 9 3 C6.03 2.67 3.06 2.34 0 2 C0 1.34 0 0.68 0 0 Z " fill="#ECFCDE" transform="translate(77,150)"/>
<path d="M0 0 C0.6875 2.0625 0.6875 2.0625 1 4 C-0.65 4.33 -2.3 4.66 -4 5 C-3.67 4.34 -3.34 3.68 -3 3 C-3.99 2.01 -4.98 1.02 -6 0 C-3 -1 -3 -1 0 0 Z " fill="#6CB1DC" transform="translate(162,121)"/>
<path d="M0 0 C2.97 0.495 2.97 0.495 6 1 C3.6875 3.0625 3.6875 3.0625 1 5 C0.01 4.67 -0.98 4.34 -2 4 C-2 3.34 -2 2.68 -2 2 C-1.34 2 -0.68 2 0 2 C0 1.34 0 0.68 0 0 Z " fill="#5EACDB" transform="translate(168,108)"/>
<path d="M0 0 C1.32 0.33 2.64 0.66 4 1 C4.33 2.65 4.66 4.3 5 6 C3.68 5.67 2.36 5.34 1 5 C0.67 3.35 0.34 1.7 0 0 Z " fill="#98C4E4" transform="translate(54,91)"/>
<path d="M0 0 C-2.39763185 2.39763185 -3.33273498 2.34280586 -6.625 2.625 C-7.44226563 2.69976562 -8.25953125 2.77453125 -9.1015625 2.8515625 C-9.72804688 2.90054687 -10.35453125 2.94953125 -11 3 C-7.65817252 -1.0165182 -4.96805907 -0.24433077 0 0 Z " fill="#EDFCDE" transform="translate(109,13)"/>
<path d="M0 0 C2.4375 0.375 2.4375 0.375 5 1 C5.33 1.66 5.66 2.32 6 3 C4.68 2.67 3.36 2.34 2 2 C2 2.99 2 3.98 2 5 C1.01 4.67 0.02 4.34 -1 4 C-0.67 2.68 -0.34 1.36 0 0 Z " fill="#75ABCD" transform="translate(240,157)"/>
<path d="M0 0 C3.33333333 1.66666667 6.66666667 3.33333333 10 5 C8.375 5.75 8.375 5.75 6 6 C2.75 4.1875 2.75 4.1875 0 2 C0 1.34 0 0.68 0 0 Z " fill="#DBF7FD" transform="translate(70,112)"/>
<path d="M0 0 C1.65 0 3.3 0 5 0 C4.34 2.31 3.68 4.62 3 7 C1.5 5.75 1.5 5.75 0 4 C0 2.68 0 1.36 0 0 Z " fill="#6CAA45" transform="translate(58,49)"/>
<path d="M0 0 C0.33 1.32 0.66 2.64 1 4 C1.66 4.33 2.32 4.66 3 5 C3 6.32 3 7.64 3 9 C2.01 9 1.02 9 0 9 C0 6.03 0 3.06 0 0 Z " fill="#739E3F" transform="translate(70,153)"/>
<path d="M0 0 C2.31 0 4.62 0 7 0 C6.67 0.66 6.34 1.32 6 2 C4.68 1.67 3.36 1.34 2 1 C2 1.66 2 2.32 2 3 C2.66 3.33 3.32 3.66 4 4 C2.35 3.67 0.7 3.34 -1 3 C-0.67 2.01 -0.34 1.02 0 0 Z " fill="#77A353" transform="translate(35,153)"/>
<path d="M0 0 C0.66 0.33 1.32 0.66 2 1 C1.67 3.31 1.34 5.62 1 8 C-0.32 7.34 -1.64 6.68 -3 6 C-2.01 4.02 -1.02 2.04 0 0 Z " fill="#E3F7CD" transform="translate(125,146)"/>
<path d="M0 0 C2.475 0.495 2.475 0.495 5 1 C4.67 1.99 4.34 2.98 4 4 C2.68 4 1.36 4 0 4 C0 2.68 0 1.36 0 0 Z " fill="#EBFDDD" transform="translate(55,150)"/>
<path d="M0 0 C1.32 0 2.64 0 4 0 C3.6875 1.875 3.6875 1.875 3 4 C2.01 4.66 1.02 5.32 0 6 C0 4.02 0 2.04 0 0 Z " fill="#64AACB" transform="translate(232,146)"/>
<path d="M0 0 C1.65 0 3.3 0 5 0 C3.6875 1.5 3.6875 1.5 2 3 C1.01 3 0.02 3 -1 3 C-1 3.66 -1 4.32 -1 5 C-1.99 4.67 -2.98 4.34 -4 4 C-3.67 3.34 -3.34 2.68 -3 2 C-2.01 2 -1.02 2 0 2 C0 1.34 0 0.68 0 0 Z " fill="#6DABD1" transform="translate(178,114)"/>
<path d="M0 0 C0.99 0 1.98 0 3 0 C3 1.32 3 2.64 3 4 C1.02 4.33 -0.96 4.66 -3 5 C-2.67 4.34 -2.34 3.68 -2 3 C-1.34 3 -0.68 3 0 3 C0 2.01 0 1.02 0 0 Z " fill="#7AAB64" transform="translate(52,158)"/>
<path d="M0 0 C0.66 0.66 1.32 1.32 2 2 C3.31747324 2.69748583 4.64914193 3.36959957 6 4 C5.67 4.33 5.34 4.66 5 5 C2.66055264 4.71269945 0.3260857 4.38063221 -2 4 C-1.34 3.67 -0.68 3.34 0 3 C0 2.01 0 1.02 0 0 Z " fill="#E1FACD" transform="translate(33,154)"/>
<path d="M0 0 C0.66 0.33 1.32 0.66 2 1 C1.67 2.32 1.34 3.64 1 5 C-0.98 4.34 -2.96 3.68 -5 3 C-3 1 -3 1 0 0 Z " fill="#61A731" transform="translate(61,154)"/>
<path d="M0 0 C1.32 0 2.64 0 4 0 C4 0.66 4 1.32 4 2 C4.66 2 5.32 2 6 2 C6 2.99 6 3.98 6 5 C5.01 5 4.02 5 3 5 C3 4.01 3 3.02 3 2 C2.01 2 1.02 2 0 2 C0 1.34 0 0.68 0 0 Z " fill="#54ACE4" transform="translate(226,153)"/>
<path d="M0 0 C0.99 0 1.98 0 3 0 C3 1.32 3 2.64 3 4 C1.35 4 -0.3 4 -2 4 C-2.33 3.34 -2.66 2.68 -3 2 C-2.01 2 -1.02 2 0 2 C0 1.34 0 0.68 0 0 Z " fill="#70A7C5" transform="translate(158,147)"/>
<path d="M0 0 C4.95 0.99 4.95 0.99 10 2 C10 2.33 10 2.66 10 3 C7.36 3 4.72 3 2 3 C1.67 3.66 1.34 4.32 1 5 C0.67 3.35 0.34 1.7 0 0 Z " fill="#88B86A" transform="translate(95,147)"/>
<path d="M0 0 C-0.99 0 -1.98 0 -3 0 C-3.33 0.99 -3.66 1.98 -4 3 C-5.65 3 -7.3 3 -9 3 C-5.83583464 -0.30799106 -4.50236011 -1.35070803 0 0 Z " fill="#53AEE5" transform="translate(178,116)"/>
</svg>
